<svg width="17" height="16" viewBox="0 0 17 16" fill="none" xmlns="http://www.w3.org/2000/svg">
<path d="M6.53846 1.28H10.4615C10.6349 1.28 10.8013 1.34743 10.9239 1.46745C11.0465 1.58748 11.1154 1.75026 11.1154 1.92V3.2H5.88462V1.92C5.88462 1.75026 5.9535 1.58748 6.07612 1.46745C6.19874 1.34743 6.36505 1.28 6.53846 1.28ZM4.57692 1.92V3.2H2.94231C2.16196 3.2 1.41357 3.50343 0.861782 4.04353C0.309992 4.58364 0 5.31618 0 6.08V7.04C0 7.54922 0.206662 8.03758 0.574521 8.39765C0.942381 8.75771 1.44131 8.96 1.96154 8.96H6.53846V8.64C6.53846 8.38539 6.64179 8.14121 6.82572 7.96118C7.00965 7.78114 7.25911 7.68 7.51923 7.68H9.48077C9.74089 7.68 9.99035 7.78114 10.1743 7.96118C10.3582 8.14121 10.4615 8.38539 10.4615 8.64V8.96H15.0385C15.5587 8.96 16.0576 8.75771 16.4255 8.39765C16.7933 8.03758 17 7.54922 17 7.04V6.08C17 5.31618 16.69 4.58364 16.1382 4.04353C15.5864 3.50343 14.838 3.2 14.0577 3.2H12.4231V1.92C12.4231 1.41078 12.2164 0.922425 11.8486 0.562355C11.4807 0.202285 10.9818 0 10.4615 0H6.53846C6.01823 0 5.5193 0.202285 5.15144 0.562355C4.78358 0.922425 4.57692 1.41078 4.57692 1.92ZM6.53846 10.24V10.56C6.53846 10.8146 6.64179 11.0588 6.82572 11.2388C7.00965 11.4189 7.25911 11.52 7.51923 11.52H9.48077C9.74089 11.52 9.99035 11.4189 10.1743 11.2388C10.3582 11.0588 10.4615 10.8146 10.4615 10.56V10.24H15.0385C15.746 10.241 16.4346 10.0163 17 9.6V13.12C17 13.8838 16.69 14.6164 16.1382 15.1565C15.5864 15.6966 14.838 16 14.0577 16H2.94231C2.16196 16 1.41357 15.6966 0.861782 15.1565C0.309992 14.6164 0 13.8838 0 13.12V9.6C0.546615 10.0019 1.22531 10.24 1.96154 10.24H6.53846Z" fill="#9D0D39"/>
</svg>
