<svg width="19" height="16" viewBox="0 0 19 16" fill="none" xmlns="http://www.w3.org/2000/svg">
<path d="M7.80375 0.479364C8.31359 0.165973 8.9009 0 9.50002 0C10.0991 0 10.6864 0.165973 11.1963 0.479364L18.7292 5.10891C18.8108 5.15908 18.8785 5.22897 18.9258 5.31211C18.9732 5.39526 18.9987 5.48896 18.9999 5.58453C19.0012 5.6801 18.9783 5.77445 18.9332 5.85883C18.8881 5.94321 18.8224 6.01489 18.7421 6.06722L11.2677 10.9344C10.7422 11.2767 10.1279 11.459 9.50002 11.459C8.87212 11.459 8.25783 11.2767 7.73231 10.9344L1.14028 6.6425V11.2698C1.14028 11.4203 1.08023 11.5647 0.973338 11.6712C0.866446 11.7777 0.721468 11.8375 0.5703 11.8375C0.419131 11.8375 0.274154 11.7777 0.167262 11.6712C0.0603692 11.5647 0.000317658 11.4203 0.000317658 11.2698V5.78109C0.000317658 5.74854 0.00335755 5.71675 0.00791741 5.68647C-0.0109213 5.57507 0.00403766 5.4606 0.0508804 5.35771C0.0977231 5.25482 0.174319 5.1682 0.270869 5.10891L7.80375 0.479364ZM3.42021 9.48261L7.10837 11.8844C7.81937 12.3475 8.65049 12.5942 9.50002 12.5942C10.3495 12.5942 11.1807 12.3475 11.8917 11.8844L15.5798 9.48336V13.1614C15.5798 13.3877 15.4567 13.524 15.3116 13.6655C15.2394 13.7352 15.136 13.8321 15.0007 13.9471C14.6348 14.2581 14.2433 14.5379 13.8304 14.7836C12.8181 15.3891 11.3399 16 9.50002 16C7.66088 16 6.18196 15.3891 5.16967 14.7836C4.75674 14.5379 4.36525 14.2581 3.99931 13.9471C3.89244 13.8566 3.78853 13.7627 3.68772 13.6655C3.54333 13.524 3.42021 13.3877 3.42021 13.1614V9.48261Z" fill="#9D0D39"/>
</svg>
