<svg width="16" height="19" viewBox="0 0 16 19" fill="none" xmlns="http://www.w3.org/2000/svg">
<path d="M9.41215 0C9.71742 0 10.0197 0.0605436 10.3017 0.178174C10.5838 0.295804 10.84 0.468218 11.0559 0.685571C11.2717 0.902923 11.443 1.16096 11.5598 1.44494C11.6766 1.72893 11.7367 2.0333 11.7367 2.34068L11.7358 2.84294H15.0589C15.3085 2.84294 15.5479 2.94278 15.7244 3.12049C15.9008 3.29821 16 3.53925 16 3.79058L15.9991 7.10639L14.5591 7.10734C13.9693 7.10749 13.4015 7.33343 12.971 7.73937C12.5404 8.14531 12.2791 8.7009 12.2402 9.29356L12.2355 9.44802V9.50488C12.2354 10.099 12.4597 10.6709 12.8629 11.1047C13.266 11.5385 13.8179 11.8016 14.4067 11.8408L14.5601 11.8456L15.9991 11.8446L16 15.1652C16 15.4165 15.9008 15.6575 15.7244 15.8353C15.5479 16.013 15.3085 16.1128 15.0589 16.1128L11.7358 16.1119V16.6122C11.742 16.9235 11.6865 17.2329 11.5725 17.5223C11.4585 17.8117 11.2883 18.0753 11.0719 18.2977C10.8554 18.5201 10.5971 18.6967 10.312 18.8173C10.027 18.9379 9.72088 19 9.41168 19C9.10248 19 8.79638 18.9379 8.51132 18.8173C8.22625 18.6967 7.96794 18.5201 7.75151 18.2977C7.53508 18.0753 7.36488 17.8117 7.25088 17.5223C7.13688 17.2329 7.08136 16.9235 7.08758 16.6122V16.1119H3.76543C3.51582 16.1119 3.27645 16.012 3.09995 15.8343C2.92346 15.6566 2.8243 15.4156 2.8243 15.1642L2.82336 11.8181H2.32457C1.70805 11.8181 1.11679 11.5715 0.68085 11.1325C0.244909 10.6936 0 10.0982 0 9.4774C0 8.85661 0.244909 8.26125 0.68085 7.82229C1.11679 7.38332 1.70805 7.13672 2.32457 7.13672H2.8243V3.79058C2.8243 3.53925 2.92346 3.29821 3.09995 3.12049C3.27645 2.94278 3.51582 2.84294 3.76543 2.84294H7.08758V2.34068C7.08758 1.7199 7.33249 1.12453 7.76843 0.685571C8.20438 0.246607 8.79564 0 9.41215 0Z" fill="#9D0D39"/>
</svg>
