<svg width="24" height="24" viewBox="0 0 24 24" fill="none" xmlns="http://www.w3.org/2000/svg">
<path d="M2 6.84615C2 5.82609 2.39509 4.84781 3.09835 4.12651C3.80161 3.40522 4.75544 3 5.75 3H8.879C9.47554 3.00054 10.0474 3.24402 10.469 3.67692L12.5 5.75692L9.41 8.92615C9.34029 8.99828 9.25734 9.05554 9.16595 9.09462C9.07455 9.1337 8.97652 9.15383 8.8775 9.15385H2V6.84615ZM2 10.6923V17.6154C2 18.6354 2.39509 19.6137 3.09835 20.335C3.80161 21.0563 4.75544 21.4615 5.75 21.4615H12.6275C12.7257 21.1778 12.877 20.9165 13.073 20.6923C12.7033 20.2697 12.4992 19.7217 12.5 19.1538C12.5 18.5631 12.716 18.0231 13.073 17.6154C12.7834 17.2833 12.5938 16.8724 12.5269 16.4323C12.46 15.9921 12.5188 15.5415 12.6961 15.1348C12.8734 14.7282 13.1617 14.3828 13.5261 14.1405C13.8906 13.8982 14.3157 13.7692 14.75 13.7692H22.25C22.5125 13.7692 22.766 13.8154 23 13.9V9.92308C23 8.90301 22.6049 7.92473 21.9017 7.20344C21.1984 6.48214 20.2446 6.07692 19.25 6.07692H14.3105L10.4705 10.0154C10.2614 10.2301 10.0131 10.4004 9.73973 10.5166C9.46638 10.6327 9.17338 10.6924 8.8775 10.6923H2ZM14.75 15.3077C14.5511 15.3077 14.3603 15.3887 14.2197 15.533C14.079 15.6773 14 15.8729 14 16.0769C14 16.2809 14.079 16.4766 14.2197 16.6209C14.3603 16.7651 14.5511 16.8462 14.75 16.8462H22.25C22.4489 16.8462 22.6397 16.7651 22.7803 16.6209C22.921 16.4766 23 16.2809 23 16.0769C23 15.8729 22.921 15.6773 22.7803 15.533C22.6397 15.3887 22.4489 15.3077 22.25 15.3077H14.75ZM14.75 18.3846C14.5511 18.3846 14.3603 18.4657 14.2197 18.6099C14.079 18.7542 14 18.9498 14 19.1538C14 19.3579 14.079 19.5535 14.2197 19.6978C14.3603 19.842 14.5511 19.9231 14.75 19.9231H22.25C22.4489 19.9231 22.6397 19.842 22.7803 19.6978C22.921 19.5535 23 19.3579 23 19.1538C23 18.9498 22.921 18.7542 22.7803 18.6099C22.6397 18.4657 22.4489 18.3846 22.25 18.3846H14.75ZM14 22.2308C14 22.0268 14.079 21.8311 14.2197 21.6868C14.3603 21.5426 14.5511 21.4615 14.75 21.4615H22.25C22.4489 21.4615 22.6397 21.5426 22.7803 21.6868C22.921 21.8311 23 22.0268 23 22.2308C23 22.4348 22.921 22.6304 22.7803 22.7747C22.6397 22.919 22.4489 23 22.25 23H14.75C14.5511 23 14.3603 22.919 14.2197 22.7747C14.079 22.6304 14 22.4348 14 22.2308Z" fill="#CCCCCC"/>
</svg>
