<svg width="24" height="24" viewBox="0 0 24 24" fill="none" xmlns="http://www.w3.org/2000/svg">
<path d="M10.7083 6.753C10.7083 6.55409 10.7917 6.36332 10.9402 6.22267C11.0887 6.08202 11.29 6.003 11.5 6.003C11.71 6.003 11.9113 6.08202 12.0598 6.22267C12.2083 6.36332 12.2917 6.55409 12.2917 6.753V8.256C12.2917 8.45491 12.2083 8.64568 12.0598 8.78633C11.9113 8.92698 11.71 9.006 11.5 9.006C11.29 9.006 11.0887 8.92698 10.9402 8.78633C10.7917 8.64568 10.7083 8.45491 10.7083 8.256V6.753ZM16.0125 8.1645C15.864 8.0239 15.6627 7.94491 15.4528 7.94491C15.2429 7.94491 15.0415 8.0239 14.8931 8.1645L13.7721 9.228C13.6279 9.36945 13.5481 9.5589 13.5499 9.75555C13.5517 9.9522 13.6349 10.1403 13.7817 10.2794C13.9285 10.4184 14.1271 10.4973 14.3346 10.499C14.5422 10.5007 14.7422 10.4251 14.8915 10.2885L16.0141 9.225C16.1625 9.08435 16.2459 8.89362 16.2459 8.69475C16.2459 8.49588 16.1609 8.30515 16.0125 8.1645ZM8.099 8.1645C8.02597 8.09287 7.93861 8.03573 7.84203 7.99642C7.74544 7.95712 7.64156 7.93643 7.53644 7.93556C7.43133 7.9347 7.32708 7.95367 7.22979 7.99138C7.13249 8.02909 7.0441 8.08478 6.96977 8.1552C6.89544 8.22562 6.83666 8.30936 6.79685 8.40153C6.75704 8.49371 6.73701 8.59247 6.73793 8.69205C6.73884 8.79164 6.76068 8.89005 6.80217 8.98155C6.84366 9.07306 6.90397 9.15581 6.97958 9.225L8.10058 10.2885C8.17361 10.3601 8.26097 10.4173 8.35756 10.4566C8.45414 10.4959 8.55802 10.5166 8.66314 10.5174C8.76826 10.5183 8.8725 10.4993 8.9698 10.4616C9.06709 10.4239 9.15548 10.3682 9.22981 10.2978C9.30414 10.2274 9.36293 10.1436 9.40273 10.0515C9.44254 9.95929 9.46257 9.86053 9.46166 9.76095C9.46074 9.66136 9.4389 9.56295 9.39741 9.47145C9.35592 9.37994 9.29561 9.29719 9.22 9.228L8.099 8.1645ZM11.5 0C16.7472 0 21 3.8955 21 8.7C21 11.2155 19.8204 13.524 17.5103 15.591C17.4102 15.6805 17.3319 15.7895 17.2808 15.9105L17.2396 16.032L15.7576 21.9075C15.4663 23.064 14.388 23.9025 13.1134 23.9925L12.8854 24H10.1146C8.81942 24 7.68417 23.226 7.30258 22.107L7.24242 21.9075L5.762 16.0335C5.71969 15.8643 5.62614 15.7105 5.49283 15.591C3.292 13.623 2.11558 11.436 2.0095 9.0585L2 8.7L2.00475 8.4135C2.171 3.741 6.35892 0 11.5 0ZM8.26208 19.5L8.76717 21.501L8.80833 21.645C8.96192 22.095 9.40367 22.428 9.93567 22.4895L10.1146 22.5H12.8268L12.9947 22.4955C13.2485 22.4817 13.4931 22.4006 13.7006 22.2613C13.9081 22.122 14.07 21.9303 14.1679 21.708L14.217 21.558L14.7379 19.5H8.26208ZM11.5 1.5C7.33267 1.5 3.919 4.4295 3.60708 8.121L3.58808 8.439L3.58333 8.6685L3.58967 8.994C3.67833 10.95 4.65683 12.7815 6.579 14.5005C6.87667 14.7675 7.1015 15.0975 7.2345 15.4605L7.30258 15.6855L7.88367 18H10.7083V11.2455C10.7083 11.0466 10.7917 10.8558 10.9402 10.7152C11.0887 10.5745 11.29 10.4955 11.5 10.4955C11.71 10.4955 11.9113 10.5745 12.0598 10.7152C12.2083 10.8558 12.2917 11.0466 12.2917 11.2455V18H15.1179L15.7307 15.5775L15.8114 15.3525C15.9476 15.03 16.1566 14.739 16.4226 14.5005C18.4398 12.6975 19.4167 10.7715 19.4167 8.7C19.4167 4.7355 15.8843 1.5 11.5 1.5Z" fill="white"/>
</svg>
