<svg width="25" height="16" viewBox="0 0 25 16" fill="none" xmlns="http://www.w3.org/2000/svg">
<path d="M6.25893 2.24356C6.38475 2.09736 6.54089 1.98003 6.71659 1.89963C6.8923 1.81922 7.08341 1.77766 7.27679 1.77778H8.92857C9.16537 1.77778 9.39247 1.68413 9.55992 1.51743C9.72736 1.35073 9.82143 1.12464 9.82143 0.888889C9.82143 0.653141 9.72736 0.427049 9.55992 0.26035C9.39247 0.0936508 9.16537 8.11059e-08 8.92857 8.11059e-08H7.27679C6.82592 -0.000102406 6.38037 0.096925 5.97072 0.284422C5.56107 0.471919 5.19702 0.745445 4.90357 1.08622L0.751786 5.90844C0.266461 6.47244 -0.000198626 7.19067 1.11006e-07 7.93333V12C1.11006e-07 13.0609 0.423309 14.0783 1.1768 14.8284C1.9303 15.5786 2.95226 16 4.01786 16H7.58929C8.65489 16 9.67684 15.5786 10.4303 14.8284C11.1838 14.0783 11.6071 13.0609 11.6071 12V9.77778H13.3929V12C13.3929 13.0609 13.8162 14.0783 14.5697 14.8284C15.3232 15.5786 16.3451 16 17.4107 16H20.9821C22.0477 16 23.0697 15.5786 23.8232 14.8284C24.5767 14.0783 25 13.0609 25 12V7.93333C24.9999 7.19056 24.733 6.47232 24.2473 5.90844L20.0955 1.08622C19.8022 0.745558 19.4383 0.4721 19.0288 0.284607C18.6193 0.097115 18.1739 2.58229e-05 17.7232 8.11059e-08H16.0714C15.8346 8.11059e-08 15.6075 0.0936508 15.4401 0.26035C15.2726 0.427049 15.1786 0.653141 15.1786 0.888889C15.1786 1.12464 15.2726 1.35073 15.4401 1.51743C15.6075 1.68413 15.8346 1.77778 16.0714 1.77778H17.7232C17.9164 1.77778 18.1074 1.81942 18.2829 1.89982C18.4585 1.98021 18.6145 2.09748 18.7402 2.24356L21.4009 5.33333H16.5179C15.7663 5.33333 15.0399 5.60288 14.4718 6.09262C13.9036 6.58236 13.5317 7.2595 13.4241 8H11.5759C11.4683 7.2595 11.0964 6.58236 10.5282 6.09262C9.96007 5.60288 9.23368 5.33333 8.48214 5.33333H3.59911L6.25893 2.24356Z" fill="#9D0D39"/>
</svg>
