<svg width="16" height="16" viewBox="0 0 16 16" fill="none" xmlns="http://www.w3.org/2000/svg">
<path d="M15.824 3.82401C15.9078 3.7401 15.9649 3.63323 15.988 3.51691C16.0111 3.4006 15.9992 3.28004 15.9538 3.17047C15.9085 3.0609 15.8316 2.96723 15.7331 2.90129C15.6345 2.83536 15.5186 2.80011 15.4 2.80001H13.2V0.600007C13.1999 0.481415 13.1646 0.365513 13.0987 0.266941C13.0328 0.168368 12.9391 0.0915463 12.8295 0.0461772C12.72 0.000808105 12.5994 -0.011073 12.4831 0.0120345C12.3668 0.035142 12.2599 0.0922016 12.176 0.176007L10.176 2.17601C10.0634 2.28842 10.0001 2.44093 10 2.60001V4.86881L8.4144 6.4544C8.17734 6.39133 7.92897 6.38353 7.68842 6.43159C7.44787 6.47966 7.22157 6.58231 7.02696 6.73163C6.83234 6.88096 6.6746 7.07297 6.56591 7.29287C6.45721 7.51278 6.40045 7.7547 6.4 8C6.4001 8.22771 6.44881 8.45276 6.54286 8.66013C6.63691 8.86751 6.77413 9.05241 6.94537 9.2025C7.11661 9.35259 7.31791 9.4644 7.53582 9.53046C7.75372 9.59652 7.98322 9.6153 8.20897 9.58556C8.43473 9.55582 8.65153 9.47824 8.8449 9.358C9.03826 9.23776 9.20374 9.07763 9.33026 8.88832C9.45678 8.699 9.54144 8.48486 9.57858 8.26021C9.61571 8.03556 9.60447 7.80556 9.5456 7.5856L11.1312 6H13.4C13.5591 5.99986 13.7116 5.93656 13.824 5.824L15.824 3.82401ZM8 6.77442e-06C8.93416 -0.00121012 9.86129 0.161525 10.7392 0.480807L9.6096 1.61041C9.56 1.66001 9.5136 1.71441 9.4728 1.77041C8.11758 1.45034 6.69496 1.581 5.42072 2.14258C4.14648 2.70415 3.09017 3.66599 2.41201 4.8822C1.73385 6.0984 1.47086 7.5026 1.66292 8.88178C1.85499 10.261 2.49163 11.5399 3.47627 12.5245C4.46091 13.5092 5.73983 14.1458 7.11902 14.3379C8.4982 14.5299 9.9024 14.2669 11.1186 13.5888C12.3348 12.9106 13.2966 11.8543 13.8582 10.5801C14.4198 9.30584 14.5505 7.88322 14.2304 6.528C14.2864 6.4864 14.34 6.44 14.3904 6.3904L15.5184 5.26081C15.8379 6.13867 16.0009 7.0658 16 8C16 12.4184 12.4184 16 8 16C3.5816 16 0 12.4184 0 8C0 3.58161 3.5816 6.77442e-06 8 6.77442e-06ZM8 3.20001C8.4144 3.20001 8.816 3.25281 9.2 3.35201V4.53761L8.8688 4.86881C8.8555 4.88191 8.84243 4.89525 8.8296 4.9088C8.35542 4.78235 7.85854 4.76651 7.37727 4.8625C6.89601 4.95849 6.44322 5.16376 6.05385 5.46245C5.66448 5.76115 5.34892 6.1453 5.13152 6.58527C4.91413 7.02523 4.8007 7.50926 4.8 8C4.80032 8.45537 4.89783 8.90543 5.08601 9.3201C5.27418 9.73477 5.54869 10.1045 5.8912 10.4046C6.2337 10.7047 6.63631 10.9282 7.07211 11.0603C7.50792 11.1923 7.96689 11.2298 8.41835 11.1703C8.86981 11.1107 9.30337 10.9555 9.69005 10.715C10.0767 10.4745 10.4076 10.1543 10.6606 9.77566C10.9136 9.39705 11.0829 8.96879 11.1572 8.51952C11.2314 8.07024 11.2089 7.61029 11.0912 7.1704L11.1312 7.1312L11.4624 6.8H12.6488C12.899 7.76923 12.84 8.79244 12.48 9.72645C12.1199 10.6605 11.4769 11.4586 10.6408 12.009C9.80479 12.5595 8.81755 12.8348 7.81728 12.7965C6.81701 12.7581 5.85376 12.408 5.06231 11.7951C4.27087 11.1822 3.69084 10.3372 3.40339 9.37838C3.11593 8.41954 3.13544 7.39481 3.45919 6.4476C3.78293 5.50039 4.39471 4.6781 5.20891 4.09578C6.02311 3.51346 6.99899 3.20026 8 3.20001Z" fill="#9D0D39"/>
</svg>
