<svg width="16" height="20" viewBox="0 0 16 20" fill="none" xmlns="http://www.w3.org/2000/svg">
<path fill-rule="evenodd" clip-rule="evenodd" d="M10 0.25C10 0.183696 9.97366 0.120107 9.92678 0.0732234C9.87989 0.0263393 9.8163 0 9.75 0H2.75C2.02065 0 1.32118 0.289731 0.805456 0.805456C0.289731 1.32118 0 2.02065 0 2.75V16.75C0 17.4793 0.289731 18.1788 0.805456 18.6945C1.32118 19.2103 2.02065 19.5 2.75 19.5H12.75C13.4793 19.5 14.1788 19.2103 14.6945 18.6945C15.2103 18.1788 15.5 17.4793 15.5 16.75V6.897C15.5 6.8307 15.4737 6.76711 15.4268 6.72022C15.3799 6.67334 15.3163 6.647 15.25 6.647H10.75C10.5511 6.647 10.3603 6.56798 10.2197 6.42733C10.079 6.28668 10 6.09591 10 5.897V0.25ZM10.75 10C10.9489 10 11.1397 10.079 11.2803 10.2197C11.421 10.3603 11.5 10.5511 11.5 10.75C11.5 10.9489 11.421 11.1397 11.2803 11.2803C11.1397 11.421 10.9489 11.5 10.75 11.5H4.75C4.55109 11.5 4.36032 11.421 4.21967 11.2803C4.07902 11.1397 4 10.9489 4 10.75C4 10.5511 4.07902 10.3603 4.21967 10.2197C4.36032 10.079 4.55109 10 4.75 10H10.75ZM10.75 14C10.9489 14 11.1397 14.079 11.2803 14.2197C11.421 14.3603 11.5 14.5511 11.5 14.75C11.5 14.9489 11.421 15.1397 11.2803 15.2803C11.1397 15.421 10.9489 15.5 10.75 15.5H4.75C4.55109 15.5 4.36032 15.421 4.21967 15.2803C4.07902 15.1397 4 14.9489 4 14.75C4 14.5511 4.07902 14.3603 4.21967 14.2197C4.36032 14.079 4.55109 14 4.75 14H10.75Z" fill="#DDDDDD"/>
</svg>
